<svg xmlns="http://www.w3.org/2000/svg" xmlns:xlink="http://www.w3.org/1999/xlink" width="314.255" height="156.221" viewBox="0 0 314.255 156.221">
  <defs>
    <linearGradient id="linear-gradient" x1="0.14" y1="0.967" x2="0.861" y2="0.517" gradientUnits="objectBoundingBox">
      <stop offset="0" stop-color="#80e4be"/>
      <stop offset="1" stop-color="#0b8457"/>
    </linearGradient>
    <linearGradient id="linear-gradient-2" x1="1.453" y1="0.539" x2="-0.225" y2="0.707" gradientUnits="objectBoundingBox">
      <stop offset="0" stop-color="#6bbb9e"/>
      <stop offset="1" stop-color="#0d724c"/>
    </linearGradient>
    <linearGradient id="linear-gradient-3" x1="0.665" y1="1" x2="0.634" y2="0.232" gradientUnits="objectBoundingBox">
      <stop offset="0" stop-color="#1fe49a"/>
      <stop offset="1" stop-color="#0b8457"/>
    </linearGradient>
  </defs>
  <g id="Group_21" data-name="Group 21" transform="translate(-561.855 -435.5)">
    <path id="Path_492" data-name="Path 492" d="M100.631,0l.222,4.424L0,22.307s80.925,4.25,115.592-6.058C129.686,10.327,100.631,0,100.631,0Z" transform="translate(575.823 558.326) rotate(3)" fill="url(#linear-gradient)"/>
    <path id="Path_493" data-name="Path 493" d="M10.926,0,10.6,9.435S0,9.058,0,5.739,10.926,0,10.926,0Z" transform="matrix(0.999, -0.035, 0.035, 0.999, 561.855, 567.325)" fill="url(#linear-gradient-2)"/>
    <path id="Subtraction_8" data-name="Subtraction 8" d="M-2369.842,163.369l-1.146-77.87,8.445-1.134-8.641-12-.323-21.663a16.536,16.536,0,0,1,1-5.674,16.632,16.632,0,0,1,2.773-4.869,16.584,16.584,0,0,1,4.235-3.673,16.548,16.548,0,0,1,5.368-2.085l22.093-4.4-.262,128.168Z" transform="translate(3009.896 405.5)" fill="url(#linear-gradient-3)"/>
    <path id="Subtraction_7" data-name="Subtraction 7" d="M-2393,131.383V81.41l6.39-1.018-6.39-8.6V46.424a13.1,13.1,0,0,1,.837-4.627,13.369,13.369,0,0,1,2.336-3.963,13.7,13.7,0,0,1,3.545-2.981,14.031,14.031,0,0,1,4.511-1.672L-2364.758,30v6.141l-7.685,14.893,7.685-1.031v77.274Z" transform="translate(2999.256 442.077)" fill="url(#linear-gradient-3)"/>
    <path id="Subtraction_5" data-name="Subtraction 5" d="M-2393,99.248V45.661a13.852,13.852,0,0,1,3.407-9.1,13.856,13.856,0,0,1,8.543-4.623L-2366.962,30v6.357l-5.726,11.155,5.726-.912v49.84Z" transform="translate(2969.339 477.537)" fill="url(#linear-gradient-3)"/>
    <text id="Fund_Street" data-name="Fund Street" transform="translate(704.11 522.721)" fill="#3b3b3b" font-size="52" font-family="Ubuntu-Bold, Ubuntu" font-weight="700" letter-spacing="0.05em"><tspan x="0" y="0">Fund</tspan><tspan x="0" y="59">Street</tspan></text>
  </g>
</svg>
