<svg width="16" height="16" viewBox="0 0 16 16" fill="none" xmlns="http://www.w3.org/2000/svg">
    <path
        d="M14.1608 15.0635L14.1611 15.0639C14.2809 15.1832 14.4432 15.2502 14.6122 15.25C14.7813 15.2498 14.9435 15.1826 15.063 15.063C15.1826 14.9435 15.2498 14.7813 15.25 14.6122C15.2502 14.4431 15.1832 14.2809 15.0639 14.1611L15.0635 14.1608L10.5846 9.68177C11.4183 8.62806 11.84 7.3034 11.7653 5.95654C11.6862 4.5321 11.058 3.19381 10.0126 2.22301C8.96725 1.25221 7.58622 0.724543 6.15987 0.750945C4.73351 0.777347 3.37295 1.35576 2.36423 2.36458C1.35552 3.3734 0.777225 4.73403 0.750937 6.16041C0.724649 7.58679 1.25241 8.96781 2.22327 10.0131C3.19413 11.0584 4.53246 11.6866 5.95687 11.7655C7.3037 11.8402 8.6283 11.4183 9.68191 10.5846L14.1608 15.0635ZM2.04529 6.27084C2.04536 5.43508 2.29322 4.61811 2.75756 3.92322C3.22192 3.22828 3.88192 2.68665 4.65411 2.36681C5.42629 2.04698 6.27597 1.96331 7.0957 2.12639C7.91543 2.28947 8.6684 2.69196 9.25939 3.28298C9.85038 3.874 10.2528 4.627 10.4159 5.44676C10.5789 6.26652 10.4952 7.11621 10.1754 7.8884C9.85553 8.66059 9.31389 9.32059 8.61895 9.78494C7.92409 10.2492 7.10717 10.4971 6.27147 10.4971C5.15099 10.4959 4.07678 10.0502 3.28449 9.25782C2.49223 8.46552 2.04658 7.39131 2.04529 6.27084Z"
        fill="#3d8e6e" stroke="#3d8e6e" stroke-width="0.5" />
</svg>
    